<?xml version="1.0" encoding="utf-8"?>
<!-- Generator: Adobe Illustrator 27.9.0, SVG Export Plug-In . SVG Version: 6.00 Build 0)  -->
<svg version="1.1" id="Layer_1" xmlns="http://www.w3.org/2000/svg" xmlns:xlink="http://www.w3.org/1999/xlink" x="0px" y="0px"
	 viewBox="0 0 1920 1080" style="enable-background:new 0 0 1920 1080;" xml:space="preserve">
<style type="text/css">
	.st0{fill:#FFFFFF;}
</style>
<g>
	<path class="st0" d="M-34.87,37.01c670.51,0,1341.02,0,2011.96,0c0,335.07,0,670.23,0,1005.98c-670.37,0-1341.16,0-2011.96,0
		C-34.87,707.98-34.87,372.54-34.87,37.01z M1204.79,371.87c0-15.29,1.46-28.68-0.67-41.48c-0.94-5.61-8.62-13.48-14.23-14.43
		c-94.55-16.04-183.32,36.78-216.23,127.76c-44.26,122.35,53.29,258.94,183.17,256.49c106.06-2,190.73-87.07,191.5-193.66
		c0.7-95.96,0.21-191.92,0.17-287.89c-0.01-25.84-0.57-25.72-27.53-26.28c-18.2-0.38-27.2,3.44-26.94,25.54
		c1.11,92.59,0.63,185.23-0.79,277.82c-0.33,21.74-2.83,44.9-10.82,64.8c-27.87,69.39-103.07,101.34-174.75,77.03
		c-59.83-20.29-107.66-93.76-86.07-169.55c19.48-68.37,89.25-112.94,160.28-99.7C1188.32,369.52,1194.83,370.34,1204.79,371.87z
		 M549.17,507.51c-0.06-106.13-86.66-193.52-192.86-194.65c-104.7-1.11-193.45,87.75-193.36,193.6
		c0.09,106.82,87,193.8,193.26,193.41C460.75,699.5,549.23,611.29,549.17,507.51z M1567.73,523.52c74.29,0,145.31-0.14,216.33,0.13
		c12.87,0.05,16.16-6.65,15.67-17.7c-2.43-54.43-19.82-103.18-60.55-140.21c-105.66-96.07-266.87-55.49-315.12,78.39
		c-47.61,132.1,66.72,273.16,205.55,253.6c29.74-4.19,31.33-7,29.42-41.73c-0.75-13.62-3.84-20.37-19.28-14.89
		c-8.68,3.08-18.35,4.1-27.65,4.61c-65.33,3.58-127.59-44.11-140.96-105.74c-17.18-79.14,28.31-144.51,91.78-166.73
		c72.19-25.28,161.77,21.67,175.23,97c-57.03,0-113.27,0-170.42,0C1567.73,490.73,1567.73,505.84,1567.73,523.52z M771.82,592.07
		c-2.22,0.23-4.43,0.46-6.65,0.7c-3.85-6.65-8.33-13.02-11.46-19.99c-36.43-81.19-72.39-162.59-109.45-243.49
		c-3.08-6.72-12.68-13.08-20.22-14.53c-12.48-2.39-25.76-0.65-42.42-0.65c4.05,11.2,5.89,17.41,8.48,23.28
		c47.73,108.4,95.6,216.74,143.23,325.18c2.62,5.96,6.07,13.37,4.68,19c-12.37,50.23-33.04,95.07-82.97,119.38
		c-28.19,13.72-34.58,33.56-20.44,64.1c74.37-17.51,120.05-65.41,145.44-135.74c42.27-117.09,85.02-234.01,127.51-351.03
		c7.21-19.84,14.1-39.8,22.61-63.85c-17.83,0-31.83-1.43-45.29,0.64c-6.18,0.95-14.21,7.64-16.47,13.6
		c-19.46,51.28-37.71,103.03-56.48,154.57C798.68,519.57,785.19,555.8,771.82,592.07z M531.68,743.88
		c-31.34-8.35-53.32-3.22-76.23,23.21c-55.87,64.42-152.37,60.7-208.52-3.25c-22.01-25.06-38.53-30.39-70.92-18.51
		c10.94,59.83,93.57,117.95,172.21,121.12C427.13,869.63,513.29,812.7,531.68,743.88z"/>
	<path d="M1204.79,371.87c-9.96-1.53-16.47-2.35-22.92-3.55c-71.04-13.24-140.81,31.33-160.28,99.7
		c-21.59,75.79,26.24,149.26,86.07,169.55c71.68,24.31,146.88-7.63,174.75-77.03c7.99-19.9,10.49-43.06,10.82-64.8
		c1.42-92.59,1.9-185.23,0.79-277.82c-0.27-22.1,8.74-25.92,26.94-25.54c26.96,0.56,27.52,0.44,27.53,26.28
		c0.04,95.96,0.53,191.93-0.17,287.89c-0.77,106.59-85.44,191.66-191.5,193.66c-129.88,2.45-227.43-134.14-183.17-256.49
		c32.91-90.98,121.68-143.81,216.23-127.76c5.62,0.95,13.29,8.82,14.23,14.43C1206.25,343.19,1204.79,356.58,1204.79,371.87z"/>
	<path d="M549.17,507.51c0.06,103.78-88.42,191.99-192.97,192.37c-106.26,0.39-193.17-86.59-193.26-193.41
		c-0.09-105.85,88.67-194.72,193.36-193.6C462.51,313.99,549.1,401.39,549.17,507.51z M493.89,506.04
		c-0.11-76.43-63.63-140.12-139.26-139.62c-74.83,0.5-136.95,63.71-137.16,139.57c-0.21,76.92,62.37,140.22,138.48,140.07
		C433.43,645.9,494,584.42,493.89,506.04z"/>
	<path d="M1567.73,523.52c0-17.68,0-32.79,0-53.27c57.15,0,113.39,0,170.42,0c-13.47-75.33-103.05-122.28-175.23-97
		c-63.47,22.23-108.96,87.6-91.78,166.73c13.38,61.62,75.63,109.32,140.96,105.74c9.3-0.51,18.97-1.53,27.65-4.61
		c15.44-5.48,18.54,1.27,19.28,14.89c1.91,34.73,0.32,37.54-29.42,41.73c-138.83,19.56-253.17-121.51-205.55-253.6
		c48.25-133.88,209.46-174.45,315.12-78.39c40.73,37.03,58.12,85.78,60.55,140.21c0.49,11.05-2.8,17.75-15.67,17.7
		C1713.05,523.38,1642.02,523.52,1567.73,523.52z"/>
	<path d="M771.82,592.07c13.37-36.27,26.85-72.49,40.08-108.81c18.77-51.55,37.02-103.29,56.48-154.57
		c2.26-5.96,10.29-12.66,16.47-13.6c13.47-2.06,27.46-0.64,45.29-0.64c-8.51,24.06-15.41,44.01-22.61,63.85
		c-42.49,117.01-85.24,233.93-127.51,351.03c-25.39,70.33-71.07,118.23-145.44,135.74c-14.13-30.55-7.74-50.38,20.44-64.1
		c49.94-24.31,70.6-69.15,82.97-119.38c1.39-5.64-2.06-13.04-4.68-19c-47.63-108.44-95.5-216.78-143.23-325.18
		c-2.59-5.88-4.43-12.08-8.48-23.28c16.67,0,29.94-1.74,42.42,0.65c7.54,1.45,17.14,7.81,20.22,14.53
		c37.06,80.9,73.02,162.3,109.45,243.49c3.13,6.97,7.61,13.34,11.46,19.99C767.39,592.53,769.61,592.3,771.82,592.07z"/>
	<path d="M531.68,743.88c-18.39,68.82-104.55,125.75-183.47,122.57c-78.63-3.17-161.26-61.28-172.21-121.12
		c32.39-11.88,48.92-6.55,70.92,18.51c56.15,63.94,152.65,67.67,208.52,3.25C478.37,740.66,500.35,735.53,531.68,743.88z"/>
	<path class="st0" d="M493.89,506.04c0.11,78.38-60.46,139.87-137.95,140.02c-76.1,0.15-138.69-63.16-138.48-140.07
		c0.21-75.86,62.33-139.07,137.16-139.57C430.26,365.91,493.78,429.6,493.89,506.04z M356.83,572.45
		c41.3-0.66,71.48-30.86,73.69-74.74c1.88-37.44-36.22-73.66-73.38-73.75c-39.76-0.1-75.2,34.25-75.81,73.49
		C280.69,538.05,315.11,572.24,356.83,572.45z"/>
	<path d="M356.83,572.45c-41.72-0.21-76.14-34.41-75.51-75.01c0.61-39.24,36.05-73.59,75.81-73.49
		c37.16,0.1,75.27,36.31,73.38,73.75C428.31,541.59,398.14,571.8,356.83,572.45z"/>
</g>
</svg>
